<svg width="13" height="12" viewBox="0 0 13 12" fill="none" xmlns="http://www.w3.org/2000/svg">
<g id="Checks">
<path id="Vector" d="M7.51296 4.01766L3.31296 8.14265C3.24282 8.21165 3.14838 8.25031 3.05 8.25031C2.95161 8.25031 2.85717 8.21165 2.78703 8.14265L0.987026 6.375C0.951908 6.34047 0.923935 6.29935 0.904706 6.25401C0.885476 6.20866 0.875366 6.15998 0.874952 6.11073C0.874539 6.06147 0.88383 6.01262 0.902296 5.96696C0.920761 5.9213 0.94804 5.87973 0.982573 5.84461C1.01711 5.80949 1.05822 5.78152 1.10356 5.76229C1.14891 5.74306 1.19759 5.73295 1.24685 5.73253C1.2961 5.73212 1.34495 5.74141 1.39061 5.75988C1.43627 5.77834 1.47785 5.80562 1.51296 5.84015L3.05 7.34953L6.98749 3.48234C7.05848 3.4126 7.15427 3.37391 7.25378 3.37479C7.30305 3.37523 7.35176 3.38536 7.39711 3.40462C7.44247 3.42388 7.48359 3.45188 7.51812 3.48703C7.55265 3.52218 7.57993 3.56379 7.59838 3.60948C7.61683 3.65516 7.62611 3.70404 7.62567 3.75331C7.62524 3.80259 7.6151 3.85129 7.59584 3.89665C7.57658 3.942 7.54858 3.98312 7.51343 4.01766H7.51296ZM12.0177 3.48703C11.9831 3.45185 11.942 3.42383 11.8967 3.40455C11.8513 3.38528 11.8026 3.37513 11.7533 3.3747C11.704 3.37426 11.6551 3.38355 11.6095 3.40202C11.5638 3.42049 11.5222 3.44778 11.487 3.48234L7.54953 7.34953L6.66687 6.48234C6.59588 6.41266 6.50012 6.37403 6.40066 6.37496C6.30119 6.37588 6.20616 6.41628 6.13648 6.48726C6.0668 6.55825 6.02817 6.65401 6.02909 6.75348C6.03002 6.85295 6.07042 6.94797 6.1414 7.01766L7.28656 8.14265C7.3567 8.21165 7.45114 8.25031 7.54953 8.25031C7.64791 8.25031 7.74236 8.21165 7.8125 8.14265L12.0125 4.01766C12.0477 3.98317 12.0758 3.94208 12.0951 3.89674C12.1144 3.8514 12.1246 3.80269 12.1251 3.75341C12.1255 3.70413 12.1163 3.65524 12.0979 3.60953C12.0794 3.56382 12.0522 3.5222 12.0177 3.48703Z" fill="#008A64"/>
</g>
</svg>
