<svg width="13" height="12" viewBox="0 0 13 12" fill="none" xmlns="http://www.w3.org/2000/svg">
<g id="X">
<path id="Vector" d="M10.1403 9.10969C10.1751 9.14453 10.2028 9.18589 10.2216 9.23141C10.2405 9.27693 10.2502 9.32573 10.2502 9.375C10.2502 9.42427 10.2405 9.47306 10.2216 9.51858C10.2028 9.56411 10.1751 9.60547 10.1403 9.64031C10.1054 9.67515 10.0641 9.70279 10.0186 9.72165C9.97303 9.7405 9.92424 9.75021 9.87496 9.75021C9.82569 9.75021 9.7769 9.7405 9.73138 9.72165C9.68586 9.70279 9.64449 9.67515 9.60965 9.64031L6.49996 6.53015L3.39028 9.64031C3.31991 9.71068 3.22448 9.75021 3.12496 9.75021C3.02545 9.75021 2.93002 9.71068 2.85965 9.64031C2.78929 9.56995 2.74976 9.47451 2.74976 9.375C2.74976 9.27549 2.78929 9.18005 2.85965 9.10969L5.96981 6L2.85965 2.89031C2.78929 2.81995 2.74976 2.72451 2.74976 2.625C2.74976 2.52549 2.78929 2.43005 2.85965 2.35969C2.93002 2.28932 3.02545 2.24979 3.12496 2.24979C3.22448 2.24979 3.31991 2.28932 3.39028 2.35969L6.49996 5.46984L9.60965 2.35969C9.68002 2.28932 9.77545 2.24979 9.87496 2.24979C9.97448 2.24979 10.0699 2.28932 10.1403 2.35969C10.2106 2.43005 10.2502 2.52549 10.2502 2.625C10.2502 2.72451 10.2106 2.81995 10.1403 2.89031L7.03012 6L10.1403 9.10969Z" fill="#A10505"/>
</g>
</svg>
