<svg width="13" height="12" viewBox="0 0 13 12" fill="none" xmlns="http://www.w3.org/2000/svg">
<g id="ClockCountdown">
<path id="Vector" d="M11.375 6.40593C11.2953 7.33217 10.9528 8.21638 10.3877 8.95455C9.82252 9.69272 9.05832 10.2541 8.18496 10.5727C7.3116 10.8913 6.36542 10.9539 5.45772 10.753C4.55003 10.5521 3.71858 10.0962 3.06122 9.43878C2.40385 8.78142 1.9479 7.94998 1.74702 7.04228C1.54614 6.13459 1.60867 5.1884 1.92727 4.31504C2.24587 3.44168 2.80728 2.67748 3.54545 2.11235C4.28362 1.54722 5.16783 1.20466 6.09407 1.12499C6.14332 1.12093 6.19288 1.12661 6.23993 1.1417C6.28698 1.15679 6.3306 1.181 6.3683 1.21295C6.40599 1.2449 6.43703 1.28396 6.45962 1.3279C6.48222 1.37185 6.49595 1.41981 6.50001 1.46905C6.50407 1.5183 6.49839 1.56786 6.4833 1.61492C6.46821 1.66197 6.444 1.70559 6.41205 1.74328C6.3801 1.78098 6.34104 1.81201 6.2971 1.83461C6.25316 1.85721 6.20519 1.87093 6.15595 1.87499C5.372 1.94235 4.62361 2.23221 3.99881 2.71048C3.37402 3.18874 2.89882 3.83551 2.62913 4.57468C2.35944 5.31385 2.30648 6.11467 2.47649 6.88292C2.64649 7.65116 3.03238 8.35487 3.58875 8.91125C4.14513 9.46762 4.84884 9.85351 5.61709 10.0235C6.38533 10.1935 7.18615 10.1406 7.92532 9.87087C8.6645 9.60118 9.31126 9.12599 9.78953 8.50119C10.2678 7.8764 10.5577 7.128 10.625 6.34405C10.6332 6.2446 10.6806 6.15247 10.7567 6.08795C10.8328 6.02343 10.9315 5.99179 11.0309 5.99999C11.1304 6.0082 11.2225 6.05557 11.2871 6.1317C11.3516 6.20783 11.3832 6.30647 11.375 6.40593ZM6.12501 3.37499V5.99999C6.12501 6.09945 6.16452 6.19483 6.23484 6.26516C6.30517 6.33548 6.40055 6.37499 6.50001 6.37499H9.12501C9.22447 6.37499 9.31985 6.33548 9.39017 6.26516C9.4605 6.19483 9.50001 6.09945 9.50001 5.99999C9.50001 5.90054 9.4605 5.80515 9.39017 5.73483C9.31985 5.6645 9.22447 5.62499 9.12501 5.62499H6.87501V3.37499C6.87501 3.27554 6.8355 3.18015 6.76517 3.10983C6.69485 3.0395 6.59947 2.99999 6.50001 2.99999C6.40055 2.99999 6.30517 3.0395 6.23484 3.10983C6.16452 3.18015 6.12501 3.27554 6.12501 3.37499ZM8.00001 2.24999C8.11126 2.24999 8.22001 2.217 8.31252 2.15519C8.40502 2.09339 8.47712 2.00554 8.51969 1.90275C8.56227 1.79997 8.5734 1.68687 8.5517 1.57775C8.53 1.46864 8.47642 1.36841 8.39776 1.28974C8.31909 1.21108 8.21886 1.1575 8.10975 1.1358C8.00063 1.1141 7.88753 1.12524 7.78475 1.16781C7.68197 1.21038 7.59412 1.28248 7.53231 1.37498C7.4705 1.46749 7.43751 1.57624 7.43751 1.68749C7.43751 1.83668 7.49677 1.97975 7.60226 2.08524C7.70775 2.19073 7.85082 2.24999 8.00001 2.24999ZM9.68751 3.37499C9.79876 3.37499 9.90751 3.342 10 3.28019C10.0925 3.21839 10.1646 3.13054 10.2072 3.02775C10.2498 2.92497 10.2609 2.81187 10.2392 2.70275C10.2175 2.59364 10.1639 2.49341 10.0853 2.41474C10.0066 2.33608 9.90636 2.2825 9.79725 2.2608C9.68813 2.2391 9.57503 2.25024 9.47225 2.29281C9.36947 2.33538 9.28162 2.40748 9.21981 2.49998C9.158 2.59249 9.12501 2.70124 9.12501 2.81249C9.12501 2.96168 9.18427 3.10475 9.28976 3.21024C9.39525 3.31573 9.53832 3.37499 9.68751 3.37499ZM10.8125 5.06249C10.9238 5.06249 11.0325 5.0295 11.125 4.96769C11.2175 4.90589 11.2896 4.81803 11.3322 4.71525C11.3748 4.61247 11.3859 4.49937 11.3642 4.39025C11.3425 4.28114 11.2889 4.18091 11.2103 4.10224C11.1316 4.02358 11.0314 3.97 10.9222 3.9483C10.8131 3.9266 10.7 3.93774 10.5972 3.98031C10.4945 4.02288 10.4066 4.09498 10.3448 4.18748C10.283 4.27999 10.25 4.38874 10.25 4.49999C10.25 4.64918 10.3093 4.79225 10.4148 4.89774C10.5203 5.00323 10.6633 5.06249 10.8125 5.06249Z" fill="#775F00"/>
</g>
</svg>
