<svg width="80" height="81" viewBox="0 0 80 81" fill="none" xmlns="http://www.w3.org/2000/svg">
<g id="Sparkle">
<path id="Vector" d="M61.7437 40.8312L45.6156 34.8937L39.6781 18.7531C39.3265 17.7979 38.6903 16.9735 37.8555 16.3912C37.0206 15.8089 36.0272 15.4967 35.0093 15.4967C33.9915 15.4967 32.9981 15.8089 32.1632 16.3912C31.3284 16.9735 30.6922 17.7979 30.3406 18.7531L24.3968 34.875L8.25621 40.8125C7.30099 41.1641 6.47661 41.8003 5.89429 42.6351C5.31198 43.47 4.99976 44.4634 4.99976 45.4813C4.99976 46.4991 5.31198 47.4925 5.89429 48.3274C6.47661 49.1622 7.30099 49.7984 8.25621 50.15L24.375 56.125L30.3125 72.2562C30.6641 73.2115 31.3002 74.0359 32.1351 74.6182C32.9699 75.2005 33.9633 75.5127 34.9812 75.5127C35.9991 75.5127 36.9925 75.2005 37.8273 74.6182C38.6622 74.0359 39.2983 73.2115 39.65 72.2562L45.5875 56.1281L61.7281 50.1906C62.6833 49.839 63.5077 49.2029 64.09 48.368C64.6723 47.5331 64.9845 46.5398 64.9845 45.5219C64.9845 44.504 64.6723 43.5106 64.09 42.6758C63.5077 41.8409 62.6833 41.2047 61.7281 40.8531L61.7437 40.8312ZM43.8718 51.4375C43.1962 51.6855 42.5827 52.0775 42.0738 52.5864C41.565 53.0952 41.1729 53.7088 40.925 54.3844L34.9875 70.4656L29.0625 54.3719C28.8143 53.6999 28.4235 53.0896 27.917 52.583C27.4104 52.0765 26.8001 51.6857 26.1281 51.4375L10.0468 45.5L26.1281 39.5625C26.8001 39.3143 27.4104 38.9235 27.917 38.417C28.4235 37.9104 28.8143 37.3001 29.0625 36.6281L35 20.5469L40.9375 36.6281C41.1854 37.3037 41.5775 37.9172 42.0863 38.4261C42.5952 38.935 43.2087 39.327 43.8843 39.575L59.9656 45.5125L43.8718 51.4375ZM45 13C45 12.337 45.2634 11.7011 45.7322 11.2322C46.201 10.7634 46.8369 10.5 47.5 10.5H52.5V5.5C52.5 4.83696 52.7634 4.20107 53.2322 3.73223C53.701 3.26339 54.3369 3 55 3C55.663 3 56.2989 3.26339 56.7677 3.73223C57.2366 4.20107 57.5 4.83696 57.5 5.5V10.5H62.5C63.163 10.5 63.7989 10.7634 64.2677 11.2322C64.7366 11.7011 65 12.337 65 13C65 13.663 64.7366 14.2989 64.2677 14.7678C63.7989 15.2366 63.163 15.5 62.5 15.5H57.5V20.5C57.5 21.163 57.2366 21.7989 56.7677 22.2678C56.2989 22.7366 55.663 23 55 23C54.3369 23 53.701 22.7366 53.2322 22.2678C52.7634 21.7989 52.5 21.163 52.5 20.5V15.5H47.5C46.8369 15.5 46.201 15.2366 45.7322 14.7678C45.2634 14.2989 45 13.663 45 13ZM77.5 28C77.5 28.663 77.2366 29.2989 76.7677 29.7678C76.2989 30.2366 75.663 30.5 75 30.5H72.5V33C72.5 33.663 72.2366 34.2989 71.7677 34.7678C71.2989 35.2366 70.663 35.5 70 35.5C69.3369 35.5 68.701 35.2366 68.2322 34.7678C67.7634 34.2989 67.5 33.663 67.5 33V30.5H65C64.3369 30.5 63.701 30.2366 63.2322 29.7678C62.7634 29.2989 62.5 28.663 62.5 28C62.5 27.337 62.7634 26.7011 63.2322 26.2322C63.701 25.7634 64.3369 25.5 65 25.5H67.5V23C67.5 22.337 67.7634 21.7011 68.2322 21.2322C68.701 20.7634 69.3369 20.5 70 20.5C70.663 20.5 71.2989 20.7634 71.7677 21.2322C72.2366 21.7011 72.5 22.337 72.5 23V25.5H75C75.663 25.5 76.2989 25.7634 76.7677 26.2322C77.2366 26.7011 77.5 27.337 77.5 28Z" fill="#3A62F2"/>
</g>
</svg>
